<svg width="512" height="512" viewBox="0 0 512 512" fill="none" xmlns="http://www.w3.org/2000/svg">
<g clip-path="url(#clip0_5_8)">
<ellipse cx="256" cy="257" rx="188" ry="189" fill="#5997D0"/>
<path d="M42.2149 233.967L250.811 442.563C253.692 445.444 259.05 444.754 262.781 441.024L414.759 289.046C418.49 285.315 419.179 279.956 416.299 277.076L207.702 68.4796C204.822 65.5995 199.463 66.2888 195.733 70.0193L43.7546 221.997C40.0241 225.728 39.3348 231.087 42.2149 233.967Z" fill="#0A3958"/>
<ellipse cx="408.019" cy="168.193" rx="57.0543" ry="90.1831" transform="rotate(-45 408.019 168.193)" fill="#0A3958"/>
<mask id="mask0_5_8" style="mask-type:luminance" maskUnits="userSpaceOnUse" x="129" y="103" width="345" height="344">
<path d="M344.54 104.154L130.731 317.963C129.291 319.403 129.289 321.736 130.727 323.174L253.124 445.571C254.563 447.009 256.896 447.008 258.336 445.568L472.145 231.759C473.585 230.319 473.587 227.985 472.148 226.547L349.751 104.15C348.313 102.712 345.98 102.713 344.54 104.154Z" fill="white"/>
</mask>
<g mask="url(#mask0_5_8)">
<path d="M341.932 106.761L133.338 315.355C130.458 318.235 130.455 322.902 133.332 325.778L250.52 442.967C253.397 445.843 258.063 445.84 260.943 442.96L469.538 234.366C472.418 231.486 472.421 226.819 469.544 223.943L352.356 106.754C349.479 103.878 344.812 103.881 341.932 106.761Z" fill="#E3F3FE"/>
<mask id="mask1_5_8" style="mask-type:luminance" maskUnits="userSpaceOnUse" x="128" y="289" width="160" height="160">
<path d="M128.123 320.57L159.412 289.281L287.018 416.886L255.729 448.175L128.123 320.57Z" fill="white"/>
</mask>
<g mask="url(#mask1_5_8)">
<path d="M158.891 289.802L286.496 417.408L287.539 416.365L159.934 288.759L158.891 289.802Z" fill="#0A3958"/>
</g>
<mask id="mask2_5_8" style="mask-type:luminance" maskUnits="userSpaceOnUse" x="159" y="257" width="160" height="160">
<path d="M159.412 289.281L190.702 257.992L318.307 385.597L287.018 416.886L159.412 289.281Z" fill="white"/>
</mask>
<g mask="url(#mask2_5_8)">
<path d="M190.18 258.513L317.785 386.118L318.828 385.076L191.223 257.47L190.18 258.513Z" fill="#0A3958"/>
</g>
<mask id="mask3_5_8" style="mask-type:luminance" maskUnits="userSpaceOnUse" x="190" y="226" width="160" height="160">
<path d="M190.702 257.992L221.991 226.703L349.596 354.308L318.307 385.597L190.702 257.992Z" fill="white"/>
</mask>
<g mask="url(#mask3_5_8)">
<path d="M221.469 227.224L349.074 354.829L350.117 353.786L222.512 226.181L221.469 227.224Z" fill="#0A3958"/>
</g>
<mask id="mask4_5_8" style="mask-type:luminance" maskUnits="userSpaceOnUse" x="221" y="195" width="160" height="160">
<path d="M221.991 226.703L253.28 195.413L380.885 323.019L349.596 354.308L221.991 226.703Z" fill="white"/>
</mask>
<g mask="url(#mask4_5_8)">
<path d="M252.758 195.935L380.364 323.54L381.407 322.497L253.801 194.892L252.758 195.935Z" fill="#0A3958"/>
</g>
<mask id="mask5_5_8" style="mask-type:luminance" maskUnits="userSpaceOnUse" x="253" y="164" width="160" height="160">
<path d="M253.28 195.414L284.569 164.124L412.174 291.73L380.885 323.019L253.28 195.414Z" fill="white"/>
</mask>
<g mask="url(#mask5_5_8)">
<path d="M284.047 164.646L411.653 292.251L412.696 291.208L285.09 163.603L284.047 164.646Z" fill="#0A3958"/>
</g>
<mask id="mask6_5_8" style="mask-type:luminance" maskUnits="userSpaceOnUse" x="284" y="132" width="160" height="160">
<path d="M284.569 164.124L315.858 132.835L443.463 260.44L412.174 291.73L284.569 164.124Z" fill="white"/>
</mask>
<g mask="url(#mask6_5_8)">
<path d="M315.337 133.357L442.942 260.962L443.985 259.919L316.38 132.314L315.337 133.357Z" fill="#0A3958"/>
</g>
<path fill-rule="evenodd" clip-rule="evenodd" d="M168.799 279.894L150.026 298.668L164.389 313.031L218.996 367.638L222.943 371.585C225.82 374.461 230.486 374.458 233.366 371.578L241.71 363.235C244.59 360.355 244.593 355.688 241.716 352.811L237.77 348.865L183.163 294.258L168.799 279.894Z" fill="#0A3958"/>
<rect x="330.1" y="118.075" width="23.8648" height="180.895" transform="rotate(-45 330.1 118.075)" fill="#E3F3FE"/>
<path fill-rule="evenodd" clip-rule="evenodd" d="M200.088 248.605L181.315 267.378L195.679 281.742L250.285 336.349L254.232 340.296C257.109 343.172 261.775 343.169 264.655 340.289L272.999 331.946C275.879 329.065 275.882 324.399 273.006 321.522L269.059 317.575L214.452 262.969L200.088 248.605Z" fill="#0A3958"/>
<path fill-rule="evenodd" clip-rule="evenodd" d="M262.667 186.027L243.893 204.8L258.257 219.164L312.863 273.771L316.81 277.718C319.687 280.594 324.353 280.591 327.234 277.711L335.577 269.367C338.458 266.487 338.46 261.821 335.584 258.944L331.637 254.997L277.03 200.39L262.667 186.027Z" fill="#0A3958"/>
<path fill-rule="evenodd" clip-rule="evenodd" d="M293.956 154.738L275.182 173.511L289.546 187.875L344.153 242.481L348.099 246.428C350.976 249.305 355.643 249.302 358.523 246.422L366.866 238.078C369.747 235.198 369.75 230.531 366.873 227.655L362.926 223.708L308.319 169.101L293.956 154.738Z" fill="#0A3958"/>
<path fill-rule="evenodd" clip-rule="evenodd" d="M325.245 123.449L306.471 142.222L320.835 156.586L375.442 211.192L379.389 215.139C382.265 218.016 386.932 218.013 389.812 215.133L398.156 206.789C401.036 203.909 401.039 199.242 398.162 196.366L394.215 192.419L339.609 137.812L325.245 123.449Z" fill="#0A3958"/>
</g>
<ellipse cx="123.475" cy="149.859" rx="57.0543" ry="117.201" transform="rotate(45 123.475 149.859)" fill="#0A3958"/>
</g>
<defs>
<clipPath id="clip0_5_8">
<rect width="512" height="512" fill="white"/>
</clipPath>
</defs>
</svg>
